<?xml version="1.0" standalone="no"?>
<!DOCTYPE svg PUBLIC "-//W3C//DTD SVG 20010904//EN"
 "http://www.w3.org/TR/2001/REC-SVG-20010904/DTD/svg10.dtd">
<svg version="1.0" xmlns="http://www.w3.org/2000/svg"
 width="200.000000pt" height="200.000000pt" viewBox="0 0 200.000000 200.000000"
 preserveAspectRatio="xMidYMid meet">
<metadata>
Created by potrace 1.14, written by Peter Selinger 2001-2017
</metadata>
<g transform="translate(0.000000,200.000000) scale(0.100000,-0.100000)"
fill="#000000" stroke="none">
<path d="M961 1507 c-6 -8 -11 -30 -10 -48 1 -23 -15 -69 -48 -140 -65 -138
-64 -137 -247 -55 -118 52 -136 63 -141 87 -14 64 -89 84 -132 35 -12 -15 -23
-33 -23 -41 0 -30 24 -64 53 -76 25 -11 34 -10 59 4 28 16 31 15 158 -41 l130
-57 0 -45 c0 -43 -4 -49 -72 -117 -56 -56 -76 -70 -88 -63 -8 5 -34 10 -57 10
-33 0 -50 -7 -77 -31 l-35 -30 -97 42 c-82 36 -99 48 -110 75 -28 68 -124 55
-124 -17 0 -48 41 -75 88 -58 26 9 42 4 127 -34 l98 -44 12 -47 c7 -26 17 -52
23 -58 13 -13 -86 -167 -109 -168 -41 0 -55 -71 -18 -90 29 -16 73 13 67 44
-3 16 11 46 46 97 l51 74 54 2 c29 1 63 9 75 16 20 14 27 11 84 -30 54 -39 62
-48 62 -77 0 -75 88 -102 142 -44 24 26 55 40 166 74 l136 43 24 -24 c28 -28
55 -34 100 -22 30 8 37 4 97 -49 36 -31 65 -65 65 -75 0 -44 62 -65 93 -31 23
25 21 48 -4 73 -15 15 -28 19 -45 15 -20 -5 -36 4 -84 46 -60 52 -60 53 -55
98 7 54 -9 90 -48 108 l-27 13 2 162 c3 154 4 162 23 162 11 0 70 -29 130 -64
l111 -64 102 -143 c56 -78 102 -149 102 -157 0 -21 25 -38 43 -31 30 11 29 37
-1 64 -26 23 -202 261 -202 274 0 3 39 39 87 80 73 63 91 74 114 69 54 -10 92
63 51 100 -40 36 -97 11 -104 -44 -2 -19 -29 -48 -91 -102 l-89 -76 -86 52
c-48 28 -99 58 -114 66 -16 9 -28 21 -28 28 0 48 -53 88 -95 73 -16 -6 -41 9
-119 71 -54 44 -106 94 -115 112 -18 36 -59 48 -80 24z m167 -162 c84 -67 101
-85 102 -108 0 -17 10 -37 25 -51 25 -23 25 -26 25 -179 0 -121 -3 -156 -14
-160 -16 -7 -345 272 -346 293 0 9 -7 25 -15 37 -15 21 -12 29 35 130 47 99
65 127 81 120 3 -1 51 -38 107 -82z m-59 -398 l148 -128 -15 -43 -16 -43 -130
-40 -131 -40 -26 28 c-28 30 -83 40 -105 20 -5 -6 -33 8 -71 35 -58 43 -61 47
-56 79 3 18 0 48 -6 66 -11 33 -10 34 60 105 67 67 74 71 108 67 23 -3 43 1
56 11 11 8 23 14 28 13 4 -1 74 -60 156 -130z"/>
</g>
</svg>
